<svg xmlns="http://www.w3.org/2000/svg" style="display:none">
  <defs>
    <style>.ic{fill:none;stroke:currentColor;stroke-width:1.5;stroke-linecap:round;stroke-linejoin:round;}</style>
  </defs>

  <symbol id="ic-brain" viewBox="0 0 24 24">
    <path class="ic" d="M9 4a3 3 0 0 0-3 3v1a3 3 0 0 0-1 5.8V15a3 3 0 0 0 3 3 2 2 0 0 0 2-2V6a2 2 0 0 0-1-2Z"/>
    <path class="ic" d="M15 4a3 3 0 0 1 3 3v1a3 3 0 0 1 1 5.8V15a3 3 0 0 1-3 3 2 2 0 0 1-2-2V6a2 2 0 0 1 1-2Z"/>
    <path class="ic" d="M12 5v14"/>
  </symbol>

  <symbol id="ic-target" viewBox="0 0 24 24">
    <circle class="ic" cx="12" cy="12" r="9"/>
    <circle class="ic" cx="12" cy="12" r="5"/>
    <circle class="ic" cx="12" cy="12" r="1" fill="currentColor"/>
  </symbol>

  <symbol id="ic-shield" viewBox="0 0 24 24">
    <path class="ic" d="M12 3 4 6v5c0 4.5 3.4 7.7 8 10 4.6-2.3 8-5.5 8-10V6Z"/>
  </symbol>

  <symbol id="ic-shield-check" viewBox="0 0 24 24">
    <path class="ic" d="M12 3 4 6v5c0 4.5 3.4 7.7 8 10 4.6-2.3 8-5.5 8-10V6Z"/>
    <path class="ic" d="M8.5 12 11 14.5l4.5-5"/>
  </symbol>

  <symbol id="ic-chart-bar" viewBox="0 0 24 24">
    <path class="ic" d="M4 20V10M9 20V6M14 20v-8M19 20V4"/>
  </symbol>

  <symbol id="ic-chart-line" viewBox="0 0 24 24">
    <path class="ic" d="M3 17 9 11l4 4 8-8"/>
    <circle cx="9" cy="11" r="1" fill="currentColor"/>
    <circle cx="13" cy="15" r="1" fill="currentColor"/>
    <circle cx="21" cy="7" r="1" fill="currentColor"/>
    <path class="ic" d="M3 20h18"/>
  </symbol>

  <symbol id="ic-chart-pie" viewBox="0 0 24 24">
    <path class="ic" d="M12 3a9 9 0 1 0 9 9h-9Z"/>
    <path class="ic" d="M14 2.3A9 9 0 0 1 21.7 10H14Z"/>
  </symbol>

  <symbol id="ic-globe" viewBox="0 0 24 24">
    <circle class="ic" cx="12" cy="12" r="9"/>
    <path class="ic" d="M3 12h18M12 3c2.7 2.6 4 5.8 4 9s-1.3 6.4-4 9c-2.7-2.6-4-5.8-4-9s1.3-6.4 4-9Z"/>
  </symbol>

  <symbol id="ic-megaphone" viewBox="0 0 24 24">
    <path class="ic" d="M3 10v4h3l7 4V6L6 10Z"/>
    <path class="ic" d="M18 9a4 4 0 0 1 0 6"/>
    <path class="ic" d="M6 14v4a2 2 0 0 0 2 2h1v-6"/>
  </symbol>

  <symbol id="ic-handshake" viewBox="0 0 24 24">
    <path class="ic" d="M2 12l4-3 4 2 3-2 3 2 4-2 2 3"/>
    <path class="ic" d="M7 11l3 4 2-1.5M17 11l-3 4"/>
  </symbol>

  <symbol id="ic-box" viewBox="0 0 24 24">
    <path class="ic" d="M12 3 3 7.5 12 12l9-4.5Z"/>
    <path class="ic" d="M3 7.5V17l9 4 9-4V7.5"/>
    <path class="ic" d="M12 12v9"/>
  </symbol>

  <symbol id="ic-truck" viewBox="0 0 24 24">
    <path class="ic" d="M2 7h11v9H2zM13 11h5l3 3v2h-8z"/>
    <circle class="ic" cx="6" cy="18" r="1.6"/>
    <circle class="ic" cx="17" cy="18" r="1.6"/>
  </symbol>

  <symbol id="ic-plane" viewBox="0 0 24 24">
    <path class="ic" d="M2 13l8-2 4-8 2 1-2 7 6 1v2l-6 1 1 5-2 1-3-6-8-1Z"/>
  </symbol>

  <symbol id="ic-map-pin" viewBox="0 0 24 24">
    <path class="ic" d="M12 21s7-5.5 7-11a7 7 0 1 0-14 0c0 5.5 7 11 7 11Z"/>
    <circle class="ic" cx="12" cy="10" r="2.3"/>
  </symbol>

  <symbol id="ic-document" viewBox="0 0 24 24">
    <path class="ic" d="M6 2h9l3 3v17H6Z"/>
    <path class="ic" d="M9 9h6M9 13h6M9 17h4"/>
  </symbol>

  <symbol id="ic-document-check" viewBox="0 0 24 24">
    <path class="ic" d="M6 2h9l3 3v17H6Z"/>
    <path class="ic" d="M9 12l2 2 4-4.5"/>
    <path class="ic" d="M9 17h6"/>
  </symbol>

  <symbol id="ic-calculator" viewBox="0 0 24 24">
    <rect class="ic" x="5" y="2" width="14" height="20" rx="1"/>
    <path class="ic" d="M7 6h10M7 11h2M11 11h2M15 11h2M7 15h2M11 15h2M15 15h2M7 19h2M11 19h2M15 19h2"/>
  </symbol>

  <symbol id="ic-dollar" viewBox="0 0 24 24">
    <circle class="ic" cx="12" cy="12" r="9"/>
    <path class="ic" d="M12 7v10M15 9.5c0-1.4-1.3-2.5-3-2.5s-3 1-3 2.3c0 3 6 1.7 6 4.7 0 1.4-1.3 2.5-3 2.5s-3-1.1-3-2.5"/>
  </symbol>

  <symbol id="ic-building" viewBox="0 0 24 24">
    <path class="ic" d="M3 21h18M4 21V10l8-6 8 6v11M9 21v-6h6v6"/>
  </symbol>

  <symbol id="ic-lock" viewBox="0 0 24 24">
    <rect class="ic" x="4" y="11" width="16" height="10" rx="1.5"/>
    <path class="ic" d="M7 11V7a5 5 0 0 1 10 0v4"/>
  </symbol>

  <symbol id="ic-bolt" viewBox="0 0 24 24">
    <path class="ic" d="M13 2 4 14h6l-1 8 9-12h-6Z"/>
  </symbol>

  <symbol id="ic-trend-up" viewBox="0 0 24 24">
    <path class="ic" d="M3 17 10 10l4 4 7-7"/>
    <path class="ic" d="M15 7h6v6"/>
  </symbol>

  <symbol id="ic-chat" viewBox="0 0 24 24">
    <path class="ic" d="M3 5h18v11H10l-5 4v-4H3Z"/>
    <path class="ic" d="M7 9h10M7 12h6"/>
  </symbol>

  <symbol id="ic-bell" viewBox="0 0 24 24">
    <path class="ic" d="M6 10a6 6 0 1 1 12 0c0 4 1 5 1 5H5s1-1 1-5Z"/>
    <path class="ic" d="M10 19a2 2 0 0 0 4 0"/>
  </symbol>

  <symbol id="ic-user" viewBox="0 0 24 24">
    <circle class="ic" cx="12" cy="8" r="3.5"/>
    <path class="ic" d="M4.5 20c0-3.6 3.4-6 7.5-6s7.5 2.4 7.5 6"/>
  </symbol>

  <symbol id="ic-users" viewBox="0 0 24 24">
    <circle class="ic" cx="9" cy="8" r="3"/>
    <path class="ic" d="M2.5 19c0-3 2.9-5 6.5-5s6.5 2 6.5 5"/>
    <circle class="ic" cx="17" cy="8" r="2.4"/>
    <path class="ic" d="M16 14.2c2.8.4 5 2.2 5 4.8"/>
  </symbol>

  <symbol id="ic-info" viewBox="0 0 24 24">
    <circle class="ic" cx="12" cy="12" r="9"/>
    <path class="ic" d="M12 8h.01M11 11h1.5v5.5H11"/>
  </symbol>

  <symbol id="ic-arrow-right" viewBox="0 0 24 24">
    <path class="ic" d="M4 12h15M13 5l7 7-7 7"/>
  </symbol>

  <symbol id="ic-search" viewBox="0 0 24 24">
    <circle class="ic" cx="11" cy="11" r="7"/>
    <path class="ic" d="M21 21l-4.3-4.3"/>
  </symbol>

  <symbol id="ic-clipboard" viewBox="0 0 24 24">
    <rect class="ic" x="5" y="4" width="14" height="17" rx="1.5"/>
    <rect class="ic" x="9" y="2" width="6" height="3" rx="1"/>
    <path class="ic" d="M8 11h8M8 15h8M8 19h5"/>
  </symbol>

  <symbol id="ic-sliders" viewBox="0 0 24 24">
    <path class="ic" d="M4 6h16M4 12h16M4 18h16"/>
    <circle cx="9" cy="6" r="1.8" fill="currentColor"/>
    <circle cx="16" cy="12" r="1.8" fill="currentColor"/>
    <circle cx="8" cy="18" r="1.8" fill="currentColor"/>
  </symbol>

  <symbol id="ic-gear" viewBox="0 0 24 24">
    <circle class="ic" cx="12" cy="12" r="3"/>
    <path class="ic" d="M12 2v3M12 19v3M4.2 4.2l2.1 2.1M17.7 17.7l2.1 2.1M2 12h3M19 12h3M4.2 19.8l2.1-2.1M17.7 6.3l2.1-2.1"/>
  </symbol>

  <symbol id="ic-check-circle" viewBox="0 0 24 24">
    <circle class="ic" cx="12" cy="12" r="9"/>
    <path class="ic" d="M8 12.5l2.5 2.5L16 9"/>
  </symbol>

  <symbol id="ic-radar" viewBox="0 0 24 24">
    <circle class="ic" cx="12" cy="12" r="9"/>
    <circle class="ic" cx="12" cy="12" r="5"/>
    <path class="ic" d="M12 12 18 7"/>
    <circle cx="12" cy="12" r="1" fill="currentColor"/>
  </symbol>

  <symbol id="ic-network" viewBox="0 0 24 24">
    <circle class="ic" cx="5" cy="6" r="2"/>
    <circle class="ic" cx="19" cy="6" r="2"/>
    <circle class="ic" cx="12" cy="13" r="2"/>
    <circle class="ic" cx="5" cy="19" r="2"/>
    <circle class="ic" cx="19" cy="19" r="2"/>
    <path class="ic" d="M6.5 7.3 10.3 11.7M17.5 7.3 13.7 11.7M10.3 14.3 6.5 17.7M13.7 14.3 17.5 17.7"/>
  </symbol>

  <symbol id="ic-rocket" viewBox="0 0 24 24">
    <path class="ic" d="M12 2c3 1 5 4 5 8 0 3-1 6-3 8l-2-2-2 2c-2-2-3-5-3-8 0-4 2-7 5-8Z"/>
    <circle class="ic" cx="12" cy="9" r="1.5"/>
    <path class="ic" d="M9 14l-3 1 1-3M15 14l3 1-1-3"/>
  </symbol>

  <symbol id="ic-compass" viewBox="0 0 24 24">
    <circle class="ic" cx="12" cy="12" r="9"/>
    <path class="ic" d="M15 9l-2 5-5 2 2-5Z"/>
  </symbol>

  <symbol id="ic-database" viewBox="0 0 24 24">
    <ellipse class="ic" cx="12" cy="5" rx="8" ry="3"/>
    <path class="ic" d="M4 5v6c0 1.7 3.6 3 8 3s8-1.3 8-3V5"/>
    <path class="ic" d="M4 11v6c0 1.7 3.6 3 8 3s8-1.3 8-3v-6"/>
  </symbol>

  <symbol id="ic-chevron-right" viewBox="0 0 24 24">
    <path class="ic" d="M9 5l7 7-7 7"/>
  </symbol>

  <symbol id="ic-phone" viewBox="0 0 24 24">
    <path class="ic" d="M5 4h4l2 5-2.5 1.5a11 11 0 0 0 5 5L15 13l5 2v4a2 2 0 0 1-2 2A16 16 0 0 1 3 6a2 2 0 0 1 2-2"/>
  </symbol>

  <symbol id="ic-bank-building" viewBox="0 0 24 24">
    <path class="ic" d="M3 21h18M4 21v-7M20 21v-7M6 10v11M10 10v11M14 10v11M18 10v11M12 2L3 8h18Z"/>
  </symbol>

  <symbol id="ic-search-file" viewBox="0 0 24 24">
    <path class="ic" d="M6 2h9l3 3v10"/>
    <path class="ic" d="M9 9h4M9 13h2"/>
    <circle class="ic" cx="15" cy="18" r="3"/>
    <path class="ic" d="M21 21l-2-2"/>
  </symbol>

  <symbol id="ic-diagram-custom" viewBox="0 0 24 24">
    <rect class="ic" x="3" y="3" width="5" height="4" rx="1"/>
    <rect class="ic" x="16" y="3" width="5" height="4" rx="1"/>
    <rect class="ic" x="9.5" y="16" width="5" height="4" rx="1"/>
    <path class="ic" d="M5.5 7v3a2 2 0 0 0 2 2h9a2 2 0 0 0 2-2V7M12 12v4"/>
  </symbol>

  <symbol id="ic-secured-custom" viewBox="0 0 24 24">
    <path class="ic" d="M12 3 4 6v5c0 4.5 3.4 7.7 8 10 4.6-2.3 8-5.5 8-10V6Z"/>
    <path class="ic" d="M8.5 12 11 14.5l4.5-5"/>
  </symbol>

  <symbol id="ic-user-custom" viewBox="0 0 24 24">
    <circle class="ic" cx="12" cy="8" r="3.5"/>
    <path class="ic" d="M4.5 20c0-3.6 3.4-6 7.5-6s7.5 2.4 7.5 6"/>
    <path class="ic" d="M16 5.5l1.5 1.5-1.5 1.5"/>
  </symbol>

  <symbol id="ic-globe-custom" viewBox="0 0 24 24">
    <circle class="ic" cx="12" cy="12" r="9"/>
    <path class="ic" d="M3 12h18M12 3c2.7 2.6 4 5.8 4 9s-1.3 6.4-4 9c-2.7-2.6-4-5.8-4-9s1.3-6.4 4-9Z"/>
    <path class="ic" d="M6 6.5 12 9M12 9l6-2.5"/>
  </symbol>

  <symbol id="ic-handshake-custom" viewBox="0 0 24 24">
    <path class="ic" d="M2 12l4-3 4 2 3-2 3 2 4-2 2 3"/>
    <path class="ic" d="M7 11l3 4 2-1.5M17 11l-3 4"/>
    <circle cx="12" cy="10" r="1" fill="currentColor"/>
  </symbol>

  <symbol id="ic-brain-circuit" viewBox="0 0 24 24">
    <path class="ic" d="M9 4a3 3 0 0 0-3 3v1a3 3 0 0 0-1 5.8V15a3 3 0 0 0 3 3 2 2 0 0 0 2-2V6a2 2 0 0 0-1-2Z"/>
    <path class="ic" d="M15 4a3 3 0 0 1 3 3v1a3 3 0 0 1 1 5.8V15a3 3 0 0 1-3 3 2 2 0 0 1-2-2V6a2 2 0 0 1 1-2Z"/>
    <path class="ic" d="M12 5v14"/>
    <circle cx="12" cy="9" r="1" fill="currentColor"/>
    <circle cx="12" cy="15" r="1" fill="currentColor"/>
  </symbol>

  <symbol id="ic-target-circuit" viewBox="0 0 24 24">
    <circle class="ic" cx="12" cy="12" r="9"/>
    <circle class="ic" cx="12" cy="12" r="5"/>
    <circle class="ic" cx="12" cy="12" r="1" fill="currentColor"/>
    <path class="ic" d="M3 12H7M17 12h4M12 3v4M12 17v4"/>
  </symbol>

  <symbol id="ic-shield-circuit" viewBox="0 0 24 24">
    <path class="ic" d="M12 3 4 6v5c0 4.5 3.4 7.7 8 10 4.6-2.3 8-5.5 8-10V6Z"/>
    <path class="ic" d="M9 11h6M12 9v6"/>
    <circle cx="12" cy="12" r="1" fill="currentColor"/>
  </symbol>

  <symbol id="ic-chart-circuit" viewBox="0 0 24 24">
    <path class="ic" d="M4 20V10M9 20V6M14 20v-8M19 20V4"/>
    <path class="ic" d="M4 15h5M9 9h5M14 16h5"/>
    <circle cx="4" cy="15" r="1" fill="currentColor"/>
    <circle cx="9" cy="9" r="1" fill="currentColor"/>
  </symbol>

  <symbol id="ic-globe-circuit" viewBox="0 0 24 24">
    <circle class="ic" cx="12" cy="12" r="9"/>
    <path class="ic" d="M3 12h18M12 3c2.7 2.6 4 5.8 4 9s-1.3 6.4-4 9c-2.7-2.6-4-5.8-4-9s1.3-6.4 4-9Z"/>
    <circle cx="7" cy="8" r="1" fill="currentColor"/>
    <circle cx="17" cy="16" r="1" fill="currentColor"/>
    <path class="ic" d="M7 8l3 2M17 16l-3-2"/>
  </symbol>

  <symbol id="ic-info-thin" viewBox="0 0 24 24">
    <circle class="ic" cx="12" cy="12" r="9"/>
    <path class="ic" d="M12 8h.01M11 11h1.5v5.5H11"/>
  </symbol>

  <symbol id="ic-shield-lock" viewBox="0 0 24 24">
    <path class="ic" d="M12 3 4 6v5c0 4.5 3.4 7.7 8 10 4.6-2.3 8-5.5 8-10V6Z"/>
    <rect class="ic" x="9" y="11.5" width="6" height="4" rx="1"/>
    <path class="ic" d="M10 11.5V10a2 2 0 0 1 4 0v1.5"/>
  </symbol>

  <symbol id="ic-bolt-thin" viewBox="0 0 24 24">
    <path class="ic" d="M13 2 4 14h6l-1 8 9-12h-6Z"/>
  </symbol>

  <symbol id="ic-globe-thin" viewBox="0 0 24 24">
    <circle class="ic" cx="12" cy="12" r="9"/>
    <path class="ic" d="M3 12h18M12 3c2.7 2.6 4 5.8 4 9s-1.3 6.4-4 9c-2.7-2.6-4-5.8-4-9s1.3-6.4 4-9Z"/>
  </symbol>

  <symbol id="ic-shield-check-thin" viewBox="0 0 24 24">
    <path class="ic" d="M12 3 4 6v5c0 4.5 3.4 7.7 8 10 4.6-2.3 8-5.5 8-10V6Z"/>
    <path class="ic" d="M8.5 12 11 14.5l4.5-5"/>
  </symbol>

  <symbol id="ic-chart-pie-thin" viewBox="0 0 24 24">
    <path class="ic" d="M12 3a9 9 0 1 0 9 9h-9Z"/>
    <path class="ic" d="M14 2.3A9 9 0 0 1 21.7 10H14Z"/>
  </symbol>

  <symbol id="ic-trend-up-thin" viewBox="0 0 24 24">
    <path class="ic" d="M3 17 10 10l4 4 7-7"/>
    <path class="ic" d="M15 7h6v6"/>
  </symbol>

  <symbol id="flag-sg" viewBox="0 0 24 16">
    <rect width="24" height="8" fill="#EF3340"/>
    <rect y="8" width="24" height="8" fill="white"/>
    <circle cx="7" cy="8" r="2.8" fill="white"/>
    <circle cx="8.2" cy="8" r="2.3" fill="#EF3340"/>
    <g fill="white" transform="translate(4.5,5)">
      <circle cx="2.5" cy="1" r="0.6"/>
      <circle cx="4.5" cy="1" r="0.6"/>
      <circle cx="1.8" cy="3" r="0.6"/>
      <circle cx="3.5" cy="3.5" r="0.6"/>
      <circle cx="5.2" cy="3" r="0.6"/>
    </g>
  </symbol>

</svg>
